<?xml version="1.0" encoding="utf-8"?>
<!-- Generator: Adobe Illustrator 18.1.1, SVG Export Plug-In . SVG Version: 6.00 Build 0)  -->
<svg version="1.1" id="Layer_1" xmlns="http://www.w3.org/2000/svg" xmlns:xlink="http://www.w3.org/1999/xlink" x="0px" y="0px"
	 viewBox="-0.3 333.6 611.6 143.1" enable-background="new -0.3 333.6 611.6 143.1" xml:space="preserve">
<g>
	<path fill="#AC162C" d="M543.9,425.1v51.6h-46.7v-50.6c6.6,2.7,14.3,4.4,23.5,4.4C529.8,430.6,537.4,428.5,543.9,425.1z"/>
	<path fill="#AC162C" d="M473.7,416.5L473.7,416.5l0.2,21.2H427v-46.8c19.6,0,29.4,9.3,40.8,20.1
		C469.8,412.8,471.7,414.7,473.7,416.5z"/>
	<path fill="#AC162C" d="M473.7,353.2v35.1c-11-9.6-24.7-18.1-46.7-18.1v-16.9h46.7V353.2z"/>
	<path fill="#AC162C" d="M497,365.2v34.1c6.6,6.8,13.5,10.6,23.2,10.6c10,0,17.1-2.8,23.5-7.2v-37.5H497z"/>
	<path fill="#AC162C" d="M611.3,333.6v15.7c-22.6,0.1-36,12.4-46.7,26.2v-41.8h46.7V333.6z"/>
	<path fill="#AC162C" d="M611.3,370v68h-46.7v-27.3c3.1-3.9,6-8,8.7-11.9C585.7,380.9,594.2,370,611.3,370z"/>
	<path fill="#FFFFFF" d="M100.9,425.2c-7.4,7.4-38.6,7.6-38.6,7.6s-31.3-0.2-38.6-7.6c-5.8-5.8-7.3-25.8-7.3-34.2
		c0-8.4,1.6-28.5,7.4-34.3c7.2-7.2,30.1-7.4,38.5-7.4s31.2,0.2,38.5,7.4c2.3,2.3,4.3,6.4,5.4,11.5h17.4c-1.3-10.3-4.4-19.7-8.7-24
		c-9.9-9.9-41.1-10.1-52.5-10.1s-42.6,0.3-52.5,10.1C1.8,352.1-0.3,379.6-0.3,391s2,38.7,9.9,46.6c10,10.1,52.7,10.3,52.7,10.3
		s42.6-0.3,52.7-10.3c4.3-4.3,7.3-13.7,8.6-23.9h-17.3C105.1,418.8,103.2,422.9,100.9,425.2z"/>
	<path fill="#FFFFFF" d="M348,392.9v15.2h43.7c-1,7.3-3.2,14-6.2,17.1c-7.4,7.4-38.6,7.6-38.6,7.6s-31.3-0.2-38.6-7.6
		c-5.8-5.8-7.3-25.8-7.3-34.2c0-8.4,1.6-28.5,7.4-34.3c7.2-7.2,30.1-7.4,38.5-7.4s31.2,0.2,38.5,7.4c2.3,2.3,4.3,6.4,5.4,11.5h17.4
		c-1.3-10.3-4.4-19.7-8.7-24c-9.9-9.9-41.1-10.1-52.5-10.1s-42.6,0.3-52.5,10.1c-7.9,7.9-10.1,35.4-10.1,46.8s2,38.7,9.9,46.6
		c10.1,10.1,52.7,10.3,52.7,10.3s42.6-0.3,52.7-10.3c5.1-5.1,8.1-17.6,9.2-29.5c0.5-5.8,0.7-11.2,0.7-15.2H348z"/>
	<path fill="#FFFFFF" d="M257,344.2c-9.9-9.9-41.1-10.1-52.5-10.1s-42.6,0.3-52.5,10.1c-7.9,7.9-10.1,35.4-10.1,46.8
		s2,38.7,9.9,46.6c7.5,7.5,33.2,9.5,45.7,10.1l2.2,24.9h9.5l2.2-24.9c12.5-0.6,38.2-2.6,45.7-10.1c7.9-7.9,9.9-35.2,9.9-46.6
		C267.2,379.6,265,352.1,257,344.2z M243.2,425.2c-4.9,5.1-20.5,6.6-30.3,7.2l1.2-13h-19l1.2,13c-9.8-0.6-25.4-2.3-30.3-7.2
		c-5.8-5.8-7.3-25.8-7.3-34.2c0-8.4,1.6-28.5,7.4-34.3c7.2-7.2,30.1-7.4,38.5-7.4s31.2,0.2,38.5,7.4c5.8,5.8,7.4,26,7.4,34.3
		C250.5,399.3,248.9,419.3,243.2,425.2z"/>
</g>
</svg>
