<svg xmlns="http://www.w3.org/2000/svg" xmlns:xlink="http://www.w3.org/1999/xlink" width="28" height="28" viewBox="0 0 28 28"><defs><style>.a{fill:none;}.b{clip-path:url(#a);}.c{fill:#262626;}</style><clipPath id="a"><rect class="a" width="28" height="28"/></clipPath></defs><g class="b"><rect class="a" width="28" height="28"/><path class="c" d="M17.6,11.143,9.082,5.959A1.163,1.163,0,0,0,7.355,6.977V17.054a1.164,1.164,0,0,0,1.727,1.017L17.6,13.178A1.167,1.167,0,0,0,17.6,11.143Zm6.4.872A12,12,0,1,0,12,24.031,12.006,12.006,0,0,0,24,12.016Zm-21.677,0A9.677,9.677,0,1,1,12,21.705,9.681,9.681,0,0,1,2.323,12.016Z" transform="translate(2 2)"/></g></svg>