<svg xmlns="http://www.w3.org/2000/svg" xmlns:xlink="http://www.w3.org/1999/xlink" width="28" height="28" viewBox="0 0 28 28"><defs><style>.a{fill:none;}.b{clip-path:url(#a);}.c{fill:#262626;}</style><clipPath id="a"><rect class="a" width="28" height="28"/></clipPath></defs><g class="b"><rect class="a" width="28" height="28"/><path class="c" d="M24.5,12.25A12.25,12.25,0,1,0,12.25,24.5,12.248,12.248,0,0,0,24.5,12.25Zm-22.129,0a9.879,9.879,0,1,1,9.879,9.879A9.876,9.876,0,0,1,2.371,12.25ZM16.992,8.3v7.9a.793.793,0,0,1-.79.79H8.3a.793.793,0,0,1-.79-.79V8.3a.793.793,0,0,1,.79-.79h7.9A.793.793,0,0,1,16.992,8.3Z" transform="translate(1.75 1.75)"/></g></svg>